<svg xmlns="http://www.w3.org/2000/svg" viewBox="0.00967908 -0.000110805 773 994.5">
	<path d="M346.112,537.724c-24.183,0.107 -79.279,-0.866 -87.025,-0.33c-3.301,0.228 -6.284,2.485 -15.695,0.829c-12.822,-2.257 -19.054,-3.068 -20.949,1.131c-1.154,2.561 -2.757,8.38 -3.624,11.68c-0.249,0.925 -1.089,1.567 -2.048,1.567c-0.959,-0.002 -1.797,-0.647 -2.044,-1.573c0.007,-0.077 -0.014,-0.146 -0.026,-0.213c-1.443,-7.915 -8,-13.77 -8,-13.77c-4.873,-2.79 -11.854,-3.486 -19.718,-5.06l-15.225,-2.915c0,0 -1.273,-1.22 -2.154,-2.065c-0.124,-0.12 -0.162,-0.307 -0.091,-0.464c0.07,-0.158 0.233,-0.256 0.405,-0.243c5.252,0.381 27.107,1.95 32.159,2.07c4.506,0.107 9.764,-4.392 9.305,-12.738c-0.029,-0.53 0.701,-9.659 0.792,-10.287c6.32,-43.369 15.472,-87.567 15.472,-87.567c0,0 6.052,-29.012 8.464,-43.618c31.406,-190.276 25.569,-315.312 21.849,-330.279c-1.132,-4.556 -1.442,-13.1 -6.982,-16.069c-3.964,-2.126 -10.877,2.109 -16.226,5.888c-5.189,3.668 -12.703,11.185 -24.317,24.968c-14.465,17.168 -37.786,50.658 -60.277,114.665c-4.884,13.897 -7.919,23.547 -10.529,33.498c-4.133,15.762 -7.886,42.526 -6.395,60.964c1.596,19.727 10.487,22.841 15.223,23.071c0.445,0.016 0.835,0.297 0.993,0.712c0.158,0.415 0.052,0.884 -0.27,1.191c-1.707,1.648 -4.131,3.967 -6.256,6.001c-1.286,1.232 -3.045,1.84 -4.817,1.668c-1.771,-0.172 -3.38,-1.107 -4.404,-2.563c-3.527,-5.223 -7.898,-14.479 -8.323,-28.74c-0.391,-13.081 -0.484,-22.53 1.196,-38.69c1.441,-13.866 5.523,-31.143 8.144,-40.822c6.225,-23.001 18.427,-60.25 32.372,-88.288c5.868,-9.882 24.205,-41.621 37.862,-57.442c11.536,-14.36 21.927,-24.702 24.664,-26.826c8.187,-6.361 20.368,-14.983 27.847,-16.369c12.468,-2.312 17.693,1.7 20.886,3.806c1.404,0.844 2.575,2.021 3.409,3.429c2.045,3.237 5.026,5.694 6.041,9.931c1.771,7.394 2.357,12.477 2.738,14.847c2.869,17.83 2.087,61.286 0.782,72.849c-1.307,11.564 -2.579,26.58 -3.613,38.258c-1.144,12.925 -4.638,47.165 -6.034,55.953c-1.914,12.031 -1.802,23.741 -1.704,31.957c-0,-0 23.824,-58.981 52.166,-97.123c29.525,-39.734 46.449,-56.012 53.569,-64.021c8.005,-9.005 24.271,-21.528 27.814,-23.386c12.837,-6.733 34.906,-2.844 41.435,-0.935c6.53,1.909 10.298,8.462 11.841,12.951c6.076,17.685 0.733,65.606 -1.531,73.133c-1.209,4.02 -12.347,58.467 -15.199,67.816c-1.85,6.063 -1.534,14.62 -2.319,21.162c5.935,-6.201 8.696,-12.813 11.348,-18.332c9.175,-19.086 32.853,-55.025 36.605,-62.23c4.536,-8.718 16.564,-26.063 20.52,-28.624c2.259,-1.461 13.162,-15.436 18.747,-22.12c2.86,-3.423 25.038,-10.604 31.086,-10.095c7.708,0.646 13.466,1.271 15.522,3.777c2.496,3.041 9.331,3.531 11.717,5.195c3.099,2.156 6.451,3.396 5.078,20.753c-7.896,45.963 -19.151,94.741 -23.587,123.83c-1.996,13.088 -5.644,29.915 -7.062,45.938c-1.278,14.454 -6.701,29.262 -10.222,45.71c-0.943,5.654 -1.431,18.055 -3.867,38.281c-1.01,8.396 4.774,41.781 12.504,53.958c7.924,12.481 10.714,20.813 23.03,25.219c4.777,1.709 23.082,0.594 41.478,-1.348c11.59,-1.224 21.752,-3.063 32.576,-1.903c1.687,0.18 4.089,1.798 4.089,1.798c-0,-0 4.82,-0.181 6.768,0.413c3.001,0.915 6.093,2.114 9.314,3.663c7.895,7.504 11.777,9.587 12.567,9.949c2.864,3.615 4.896,9.72 4.353,13.563c-1.139,8.093 -1.544,18.923 -11.703,21.966c-5.186,1.553 -33.164,5.77 -46.807,10.973c-5.528,0.33 -16.922,2.29 -33.679,6.94c-8.207,1.137 -22.525,4.85 -27.383,6.584c-25.214,2.895 -78.689,14.217 -96.446,13.687c-11.98,2.536 -14.431,1.18 -23.645,3.443c0.072,4.152 -0.531,9.523 -0.065,14.142c48.835,-0.108 100.212,-1.025 121.705,-0.154c51.127,2.073 89.056,1.26 117.24,4.739c52.978,6.539 74.821,18.882 73.425,41.807c-1.397,22.927 -34.997,34.137 -35.217,33.804c-0.219,-0.333 -86.997,34.405 -121.602,49.177c-25.925,11.068 -54.495,15.526 -80.829,35.25c-4.837,3.623 -17.126,7.54 -22.95,9.419c-5.253,1.696 -12.423,2.717 -19.99,4.787c-13.879,3.795 -32.595,8.658 -67.992,10.285c0,0 -11.894,2.361 -20.556,40.67c-6.937,38.914 -0.657,84.606 -0.457,87.255c1.8,24.372 2.176,26.681 38.245,45.039c11.753,5.981 15.066,9.575 15.168,11.926c0.434,10.021 5.637,15.683 6.299,17.77c0.553,1.74 -0.333,6.064 -1.51,6.874c-1.562,1.076 -2.388,3.515 -2.388,3.515c0,-0 0.067,7.496 -0.684,12.257c-1.41,8.941 -4.151,17.641 -10.365,24.466c-4.059,4.458 -7.869,8.642 -7.869,8.642c-4.796,1.061 -9.984,0.309 -9.984,0.309c0,-0 -13.771,-7.012 -28.567,-3.484c-2.262,0.546 -4.615,0.644 -6.917,0.287c-6.066,-0.945 -18.667,-2.908 -28.416,-4.452c-5.904,-0.92 -11.609,-2.767 -16.881,-5.467c-3.38,-1.738 -6.182,-5.089 -12.256,-3.885c-2.45,0.418 -4.966,-0.127 -7.022,-1.524c-7.478,-4.763 -16.469,-9.679 -24.314,-16.194c-13.261,-11.011 -24.772,-27.446 -29.022,-40.861c-4.022,-12.699 -7.005,-28.114 -6.974,-43.607c0.043,-21.615 8.518,-57.485 18.789,-87.759c7.139,-21.044 13.081,-45.816 19.297,-65.254c2.79,-8.723 6.676,-17.086 8.644,-23.323c0.736,-2.332 2.373,-10.358 1.579,-15.372c-0.704,-4.451 -2.553,-10.346 -2.891,-10.91c-3.69,-6.153 -1.955,-36.174 3.147,-52.786c0.247,-0.72 0.12,-1.516 -0.34,-2.121c-0.46,-0.607 -1.192,-0.941 -1.952,-0.895c-25.244,1.481 -64.637,2.845 -102.948,1.01c-46.785,-2.242 -101.12,-2.811 -112.413,-5.137c-33.033,-6.801 -39.473,-0.438 -63.359,-6.507c-4.744,-1.204 -15.804,-20.301 -21.395,-20.791c-4.277,-0.376 -6.229,-2.364 -6.909,-3.278c-0.146,-0.244 -0.252,-0.511 -0.318,-0.789c-2.642,-11.279 -3.77,-13.11 -6.977,-19.818c-3.374,-7.06 -1.167,-13.129 -0.77,-14.096c1.723,-4.19 9.924,-7.319 12.437,-7.965c9.362,-0.191 12.691,0.61 19.839,-4.498c4.468,-3.192 22.848,1.665 51.485,5.739c3.436,0.489 9.333,3.604 9.333,3.604c0,-0 12.908,0.961 17.76,1.889c0.847,0.232 1.632,0.65 2.299,1.222c3.872,3.358 6.445,5.277 18.698,4.757c2.851,-0.121 4.1,-1.642 6.95,-1.43c4.688,0.347 10.001,0.634 21.256,3.252c3.083,1.309 4.408,7.275 13.766,7.562c49.803,1.537 53.206,-3.679 73.802,-4.065c24.288,-0.454 64.092,-3.625 92.228,-5.488c2.663,-4.676 3.238,-8.974 5.174,-14.132Zm173.573,61.421c-54.095,1.344 -68.228,3.784 -68.228,3.784c-3.729,8.064 -10.018,35.378 -11.706,42.062c-1.383,5.469 -15.481,33.546 -7.237,43.45c22.31,0.049 44.255,1.799 60.396,-0.476c13.16,-1.855 25.227,-4.327 37.097,-7.091c11.628,-2.708 24.006,-5.542 34.945,-9.344c14.503,-8.505 30.762,-14.36 30.762,-14.36c66.905,-25.681 107.907,-48.631 115.592,-59.69c-9.015,-0.772 -43.903,-0.982 -81.076,0.214c-7.601,0.244 -16.209,-1.055 -28.753,-0.65c-9.262,0.299 -43.674,0.269 -57.961,1.206c-7.579,0.495 -19.532,0.789 -23.831,0.895Zm-58.106,-95.303c14.975,-2.128 44.044,-8.5 54.067,-10.735c17.413,-3.886 25.997,-6.73 30.072,-8.379c0.51,-0.334 0.785,-0.931 0.702,-1.537c-0.082,-0.605 -0.506,-1.108 -1.089,-1.292c-6.507,-2.213 -19.993,-7.663 -29.408,-17.422c-12.105,-12.548 -14.189,-21.545 -16.355,-26.449c-5.114,-11.583 -7.158,-18.838 -9.914,-39.7c-2.817,-21.336 -0.603,-50.798 -0.692,-68.665c-0.074,-14.509 6.251,-60.393 0.859,-56.443c-3.764,2.757 -26.164,55.364 -38.75,72.619c-4.629,6.345 -30.697,58.202 -34.741,66.683c-4.621,6.793 -18.892,31.827 -21.774,33.579c-3.388,3.804 -9.089,12.804 -18.491,23.983c-5,3.361 -11.169,18.876 -17.483,21.866c-7.524,3.563 -9.161,9.924 -17.86,10.455c-3.824,0.233 -10.393,-3.994 -15.311,-9.189c-5.868,0.297 -20.146,-7.884 -20.639,-21.339c-1.017,-8.95 4.1,-22.222 9.137,-39.78c0.663,-2.306 0.187,-3.617 0.726,-7.85c0.243,-1.906 2.022,-4.568 2.642,-6.855c3.029,-11.175 7.703,-20.153 8.095,-28.389c1.807,-4.633 8.508,-37.31 14.831,-69.957c1.151,-5.946 7.173,-32.171 8.347,-37.343c4.944,-21.816 6.677,-24.009 10.446,-52.679c1.297,-9.866 2.539,-20.104 4.182,-29.652c1.902,-11.047 2.912,-27.688 2.239,-30.104c-1.429,-5.118 -8.895,2.216 -21.565,19.274c-4.034,3.189 -26.156,37.587 -30.869,44.693c-1.821,1.865 -3.156,2.795 -7.964,13.126c-4.435,6.737 -7.807,13.05 -9.218,17.562c-3.109,6.348 -5.749,11.375 -9.004,21.164c-1.52,4.571 -11.31,32.034 -14.194,39.305c-3.31,8.344 -5.614,15.762 -6.909,19.805c-7.036,21.996 -14.303,45.797 -20.219,65.158c-3.19,17.05 -5.421,30.699 -8.362,35.595c0.296,3.67 -0.124,7.743 -1.338,13.851c-0.462,2.326 -2.604,2.676 -2.685,5.302c-0.376,12.201 -3.264,18.222 -4.765,30.537c-1.038,8.501 -2.453,17.664 -3.42,27.33c-0.28,2.929 1.85,5.537 4.775,5.849c19.238,0.295 75.461,-3.266 103.173,-7.309c6.785,-0.989 16.243,-2 25.083,-3.105c6.399,-6.313 14.369,-12.363 20.328,-15.203c7.768,-3.704 16.712,-8.79 22.568,-9.143c4.824,-4.007 13.793,-4.173 20.475,-7.376c4.787,-0.894 9.082,-0.932 13.117,-0.52c8.098,2.109 2.559,8.688 27.155,18.679Z" fill="#000000"/>
</svg>